<svg width="100" height="68" viewBox="0 0 100 68" fill="none" xmlns="http://www.w3.org/2000/svg">
    <circle cx="2.1405" cy="2.27246" r="1.5" fill="#1E266E"/>
    <circle cx="10.1405" cy="2.27246" r="1.5" fill="#1E266E"/>
    <circle cx="18.1405" cy="2.27246" r="1.5" fill="#1E266E"/>
    <circle cx="26.1405" cy="2.27246" r="1.5" fill="#1E266E"/>
    <circle cx="34.1405" cy="2.27246" r="1.5" fill="#1E266E"/>
    <circle cx="42.1405" cy="2.27246" r="1.5" fill="#1E266E"/>
    <circle cx="50.1405" cy="2.27246" r="1.5" fill="#1E266E"/>
    <circle cx="58.1405" cy="2.27246" r="1.5" fill="#1E266E"/>
    <circle cx="66.1405" cy="2.27246" r="1.5" fill="#1E266E"/>
    <circle cx="74.1405" cy="2.27246" r="1.5" fill="#1E266E"/>
    <circle cx="82.1405" cy="2.27246" r="1.5" fill="#1E266E"/>
    <circle cx="90.1405" cy="2.27246" r="1.5" fill="#1E266E"/>
    <circle cx="98.1405" cy="2.27246" r="1.5" fill="#1E266E"/>
    <circle cx="2.1405" cy="10.2725" r="1.5" fill="#1E266E"/>
    <circle cx="10.1405" cy="10.2725" r="1.5" fill="#1E266E"/>
    <circle cx="18.1405" cy="10.2725" r="1.5" fill="#1E266E"/>
    <circle cx="26.1405" cy="10.2725" r="1.5" fill="#1E266E"/>
    <circle cx="34.1405" cy="10.2725" r="1.5" fill="#1E266E"/>
    <circle cx="42.1405" cy="10.2725" r="1.5" fill="#1E266E"/>
    <circle cx="50.1405" cy="10.2725" r="1.5" fill="#1E266E"/>
    <circle cx="58.1405" cy="10.2725" r="1.5" fill="#1E266E"/>
    <circle cx="66.1405" cy="10.2725" r="1.5" fill="#1E266E"/>
    <circle cx="74.1405" cy="10.2725" r="1.5" fill="#1E266E"/>
    <circle cx="82.1405" cy="10.2725" r="1.5" fill="#1E266E"/>
    <circle cx="90.1405" cy="10.2725" r="1.5" fill="#1E266E"/>
    <circle cx="98.1405" cy="10.2725" r="1.5" fill="#1E266E"/>
    <circle cx="2.1405" cy="18.2725" r="1.5" fill="#1E266E"/>
    <circle cx="10.1405" cy="18.2725" r="1.5" fill="#1E266E"/>
    <circle cx="18.1405" cy="18.2725" r="1.5" fill="#1E266E"/>
    <circle cx="26.1405" cy="18.2725" r="1.5" fill="#1E266E"/>
    <circle cx="34.1405" cy="18.2725" r="1.5" fill="#1E266E"/>
    <circle cx="42.1405" cy="18.2725" r="1.5" fill="#1E266E"/>
    <circle cx="50.1405" cy="18.2725" r="1.5" fill="#1E266E"/>
    <circle cx="58.1405" cy="18.2725" r="1.5" fill="#1E266E"/>
    <circle cx="66.1405" cy="18.2725" r="1.5" fill="#1E266E"/>
    <circle cx="74.1405" cy="18.2725" r="1.5" fill="#1E266E"/>
    <circle cx="82.1405" cy="18.2725" r="1.5" fill="#1E266E"/>
    <circle cx="90.1405" cy="18.2725" r="1.5" fill="#1E266E"/>
    <circle cx="98.1405" cy="18.2725" r="1.5" fill="#1E266E"/>
    <circle cx="2.1405" cy="26.2725" r="1.5" fill="#1E266E"/>
    <circle cx="10.1405" cy="26.2725" r="1.5" fill="#1E266E"/>
    <circle cx="18.1405" cy="26.2725" r="1.5" fill="#1E266E"/>
    <circle cx="26.1405" cy="26.2725" r="1.5" fill="#1E266E"/>
    <circle cx="34.1405" cy="26.2725" r="1.5" fill="#1E266E"/>
    <circle cx="42.1405" cy="26.2725" r="1.5" fill="#1E266E"/>
    <circle cx="50.1405" cy="26.2725" r="1.5" fill="#1E266E"/>
    <circle cx="58.1405" cy="26.2725" r="1.5" fill="#1E266E"/>
    <circle cx="66.1405" cy="26.2725" r="1.5" fill="#1E266E"/>
    <circle cx="74.1405" cy="26.2725" r="1.5" fill="#1E266E"/>
    <circle cx="82.1405" cy="26.2725" r="1.5" fill="#1E266E"/>
    <circle cx="90.1405" cy="26.2725" r="1.5" fill="#1E266E"/>
    <circle cx="98.1405" cy="26.2725" r="1.5" fill="#1E266E"/>
    <circle cx="2.1405" cy="34.2725" r="1.5" fill="#1E266E"/>
    <circle cx="10.1405" cy="34.2725" r="1.5" fill="#1E266E"/>
    <circle cx="18.1405" cy="34.2725" r="1.5" fill="#1E266E"/>
    <circle cx="26.1405" cy="34.2725" r="1.5" fill="#1E266E"/>
    <circle cx="34.1405" cy="34.2725" r="1.5" fill="#1E266E"/>
    <circle cx="42.1405" cy="34.2725" r="1.5" fill="#1E266E"/>
    <circle cx="50.1405" cy="34.2725" r="1.5" fill="#1E266E"/>
    <circle cx="58.1405" cy="34.2725" r="1.5" fill="#1E266E"/>
    <circle cx="66.1405" cy="34.2725" r="1.5" fill="#1E266E"/>
    <circle cx="74.1405" cy="34.2725" r="1.5" fill="#1E266E"/>
    <circle cx="82.1405" cy="34.2725" r="1.5" fill="#1E266E"/>
    <circle cx="90.1405" cy="34.2725" r="1.5" fill="#1E266E"/>
    <circle cx="98.1405" cy="34.2725" r="1.5" fill="#1E266E"/>
    <circle cx="2.1405" cy="42.2725" r="1.5" fill="#1E266E"/>
    <circle cx="10.1405" cy="42.2725" r="1.5" fill="#1E266E"/>
    <circle cx="18.1405" cy="42.2725" r="1.5" fill="#1E266E"/>
    <circle cx="26.1405" cy="42.2725" r="1.5" fill="#1E266E"/>
    <circle cx="34.1405" cy="42.2725" r="1.5" fill="#1E266E"/>
    <circle cx="42.1405" cy="42.2725" r="1.5" fill="#1E266E"/>
    <circle cx="50.1405" cy="42.2725" r="1.5" fill="#1E266E"/>
    <circle cx="58.1405" cy="42.2725" r="1.5" fill="#1E266E"/>
    <circle cx="66.1405" cy="42.2725" r="1.5" fill="#1E266E"/>
    <circle cx="74.1405" cy="42.2725" r="1.5" fill="#1E266E"/>
    <circle cx="82.1405" cy="42.2725" r="1.5" fill="#1E266E"/>
    <circle cx="90.1405" cy="42.2725" r="1.5" fill="#1E266E"/>
    <circle cx="98.1405" cy="42.2725" r="1.5" fill="#1E266E"/>
    <circle cx="2.1405" cy="50.2725" r="1.5" fill="#1E266E"/>
    <circle cx="10.1405" cy="50.2725" r="1.5" fill="#1E266E"/>
    <circle cx="18.1405" cy="50.2725" r="1.5" fill="#1E266E"/>
    <circle cx="26.1405" cy="50.2725" r="1.5" fill="#1E266E"/>
    <circle cx="34.1405" cy="50.2725" r="1.5" fill="#1E266E"/>
    <circle cx="42.1405" cy="50.2725" r="1.5" fill="#1E266E"/>
    <circle cx="50.1405" cy="50.2725" r="1.5" fill="#1E266E"/>
    <circle cx="58.1405" cy="50.2725" r="1.5" fill="#1E266E"/>
    <circle cx="66.1405" cy="50.2725" r="1.5" fill="#1E266E"/>
    <circle cx="74.1405" cy="50.2725" r="1.5" fill="#1E266E"/>
    <circle cx="82.1405" cy="50.2725" r="1.5" fill="#1E266E"/>
    <circle cx="90.1405" cy="50.2725" r="1.5" fill="#1E266E"/>
    <circle cx="98.1405" cy="50.2725" r="1.5" fill="#1E266E"/>
    <circle cx="2.1405" cy="58.2725" r="1.5" fill="#1E266E"/>
    <circle cx="10.1405" cy="58.2725" r="1.5" fill="#1E266E"/>
    <circle cx="18.1405" cy="58.2725" r="1.5" fill="#1E266E"/>
    <circle cx="26.1405" cy="58.2725" r="1.5" fill="#1E266E"/>
    <circle cx="34.1405" cy="58.2725" r="1.5" fill="#1E266E"/>
    <circle cx="42.1405" cy="58.2725" r="1.5" fill="#1E266E"/>
    <circle cx="50.1405" cy="58.2725" r="1.5" fill="#1E266E"/>
    <circle cx="58.1405" cy="58.2725" r="1.5" fill="#1E266E"/>
    <circle cx="66.1405" cy="58.2725" r="1.5" fill="#1E266E"/>
    <circle cx="74.1405" cy="58.2725" r="1.5" fill="#1E266E"/>
    <circle cx="82.1405" cy="58.2725" r="1.5" fill="#1E266E"/>
    <circle cx="90.1405" cy="58.2725" r="1.5" fill="#1E266E"/>
    <circle cx="98.1405" cy="58.2725" r="1.5" fill="#1E266E"/>
    <circle cx="2.1405" cy="66.2725" r="1.5" fill="#1E266E"/>
    <circle cx="10.1405" cy="66.2725" r="1.5" fill="#1E266E"/>
    <circle cx="18.1405" cy="66.2725" r="1.5" fill="#1E266E"/>
    <circle cx="26.1405" cy="66.2725" r="1.5" fill="#1E266E"/>
    <circle cx="34.1405" cy="66.2725" r="1.5" fill="#1E266E"/>
    <circle cx="42.1405" cy="66.2725" r="1.5" fill="#1E266E"/>
    <circle cx="50.1405" cy="66.2725" r="1.5" fill="#1E266E"/>
    <circle cx="58.1405" cy="66.2725" r="1.5" fill="#1E266E"/>
    <circle cx="66.1405" cy="66.2725" r="1.5" fill="#1E266E"/>
    <circle cx="74.1405" cy="66.2725" r="1.5" fill="#1E266E"/>
    <circle cx="82.1405" cy="66.2725" r="1.5" fill="#1E266E"/>
    <circle cx="90.1405" cy="66.2725" r="1.5" fill="#1E266E"/>
    <circle cx="98.1405" cy="66.2725" r="1.5" fill="#1E266E"/>
    </svg>
    